<svg xmlns="http://www.w3.org/2000/svg" xmlns:xlink="http://www.w3.org/1999/xlink" viewBox="0 0 37 37" id="cx">
  <defs>
    <style>
      .cls-1 {
        fill: url(#linear-gradient);
      }

      .cls-2 {
        fill: #fff;
      }

      .cls-3 {
        filter: url(#路径_110);
      }

      .cls-4 {
        filter: url(#路径_109);
      }

      .cls-5 {
        filter: url(#路径_108);
      }

      .cls-6 {
        filter: url(#路径_107);
      }
    </style>
    <linearGradient id="linear-gradient" x1="0.189" y1="0.947" x2="0.879" y2="0.109" gradientUnits="objectBoundingBox">
      <stop offset="0" stop-color="#51c24d"/>
      <stop offset="1" stop-color="#78e975"/>
    </linearGradient>
    <filter id="路径_107" x="2.5" y="4.5" width="19" height="19" filterUnits="userSpaceOnUse">
      <feOffset dy="1" input="SourceAlpha"/>
      <feGaussianBlur stdDeviation="1.5" result="blur"/>
      <feFlood flood-opacity="0.161"/>
      <feComposite operator="in" in2="blur"/>
      <feComposite in="SourceGraphic"/>
    </filter>
    <filter id="路径_108" x="14.6" y="4.5" width="19" height="19" filterUnits="userSpaceOnUse">
      <feOffset dy="1" input="SourceAlpha"/>
      <feGaussianBlur stdDeviation="1.5" result="blur-2"/>
      <feFlood flood-opacity="0.161"/>
      <feComposite operator="in" in2="blur-2"/>
      <feComposite in="SourceGraphic"/>
    </filter>
    <filter id="路径_109" x="2.5" y="16.5" width="19" height="19" filterUnits="userSpaceOnUse">
      <feOffset dy="1" input="SourceAlpha"/>
      <feGaussianBlur stdDeviation="1.5" result="blur-3"/>
      <feFlood flood-opacity="0.161"/>
      <feComposite operator="in" in2="blur-3"/>
      <feComposite in="SourceGraphic"/>
    </filter>
    <filter id="路径_110" x="14.6" y="16.5" width="19" height="19" filterUnits="userSpaceOnUse">
      <feOffset dy="1" input="SourceAlpha"/>
      <feGaussianBlur stdDeviation="1.5" result="blur-4"/>
      <feFlood flood-opacity="0.161"/>
      <feComposite operator="in" in2="blur-4"/>
      <feComposite in="SourceGraphic"/>
    </filter>
  </defs>
  <g id="其他ICONS" transform="translate(-303 -252)">
    <circle id="椭圆_8" data-name="椭圆 8" class="cls-1" cx="18.5" cy="18.5" r="18.5" transform="translate(303 252)"/>
    <g id="组_164" data-name="组 164" transform="translate(310 260)">
      <g class="cls-6" transform="matrix(1, 0, 0, 1, -7, -8)">
        <path id="路径_107-2" data-name="路径 107" class="cls-2" d="M10,10H3A2.946,2.946,0,0,1,0,7V3A2.946,2.946,0,0,1,3,0H7a2.946,2.946,0,0,1,3,3Z" transform="translate(7 8)"/>
      </g>
      <g class="cls-5" transform="matrix(1, 0, 0, 1, -7, -8)">
        <path id="路径_108-2" data-name="路径 108" class="cls-2" d="M19.1,10h-7V3a2.946,2.946,0,0,1,3-3h4a2.946,2.946,0,0,1,3,3V7A2.946,2.946,0,0,1,19.1,10Z" transform="translate(7 8)"/>
      </g>
      <g class="cls-4" transform="matrix(1, 0, 0, 1, -7, -8)">
        <path id="路径_109-2" data-name="路径 109" class="cls-2" d="M7,22H3a2.946,2.946,0,0,1-3-3V15a2.946,2.946,0,0,1,3-3h7v7A2.946,2.946,0,0,1,7,22Z" transform="translate(7 8)"/>
      </g>
      <g class="cls-3" transform="matrix(1, 0, 0, 1, -7, -8)">
        <path id="路径_110-2" data-name="路径 110" class="cls-2" d="M19.1,22h-4a2.946,2.946,0,0,1-3-3V12h7a2.946,2.946,0,0,1,3,3v4A2.946,2.946,0,0,1,19.1,22Z" transform="translate(7 8)"/>
      </g>
    </g>
  </g>
</svg>
