<svg xmlns="http://www.w3.org/2000/svg" xmlns:xlink="http://www.w3.org/1999/xlink" viewBox="0 0 37 37">
  <defs>
    <style>
      .cls-1 {
        fill: url(#linear-gradient);
      }

      .cls-2 {
        fill: #fff;
      }
    </style>
    <linearGradient id="linear-gradient" x1="0.189" y1="0.947" x2="0.879" y2="0.109" gradientUnits="objectBoundingBox">
      <stop offset="0" stop-color="#ff6059"/>
      <stop offset="1" stop-color="#ff857b"/>
    </linearGradient>
  </defs>
  <g id="组_133" data-name="组 133" transform="translate(-33 -252)">
    <circle id="椭圆_5" data-name="椭圆 5" class="cls-1" cx="18.5" cy="18.5" r="18.5" transform="translate(33 252)"/>
    <path id="减去_2" data-name="减去 2" class="cls-2" d="M911,867h-2l.8-4H908a2,2,0,0,1-2-2V850a2,2,0,0,1,2-2h18a2,2,0,0,1,2,2v11a2,2,0,0,1-2,2h-2.777l.848,3.819h-2L921.221,863H911.8l-.8,4Zm3.759-14.254h0v5.51l5.35-2.772Z" transform="translate(-865 -587)"/>
  </g>
</svg>
