<svg xmlns="http://www.w3.org/2000/svg" xmlns:xlink="http://www.w3.org/1999/xlink" viewBox="0 0 37 37">
  <defs>
    <style>
      .cls-1 {
        fill: url(#linear-gradient);
      }

      .cls-2 {
        fill: #fff;
      }

      .cls-3 {
        fill: none;
        stroke: #fff;
        stroke-miterlimit: 10;
      }

      .cls-4 {
        filter: url(#路径_67);
      }

      .cls-5 {
        filter: url(#路径_66);
      }
    </style>
    <linearGradient id="linear-gradient" x1="0.189" y1="0.947" x2="0.879" y2="0.109" gradientUnits="objectBoundingBox">
      <stop offset="0" stop-color="#2e88ff"/>
      <stop offset="1" stop-color="#7ba3ff"/>
    </linearGradient>
    <filter id="路径_66" x="5.1" y="4.5" width="26.8" height="16.7" filterUnits="userSpaceOnUse">
      <feOffset dy="1" input="SourceAlpha"/>
      <feGaussianBlur stdDeviation="1.5" result="blur"/>
      <feFlood flood-opacity="0.161"/>
      <feComposite operator="in" in2="blur"/>
      <feComposite in="SourceGraphic"/>
    </filter>
    <filter id="路径_67" x="4.5" y="11.8" width="27.9" height="22.1" filterUnits="userSpaceOnUse">
      <feOffset dy="1" input="SourceAlpha"/>
      <feGaussianBlur stdDeviation="1.5" result="blur-2"/>
      <feFlood flood-opacity="0.161"/>
      <feComposite operator="in" in2="blur-2"/>
      <feComposite in="SourceGraphic"/>
    </filter>
  </defs>
  <g id="漫画ICON" transform="translate(-213 -252)">
    <g id="铃铛">
      <circle id="椭圆_7" data-name="椭圆 7" class="cls-1" cx="18.5" cy="18.5" r="18.5" transform="translate(213 252)"/>
      <g id="组_152" data-name="组 152" transform="translate(222 260)">
        <g class="cls-5" transform="matrix(1, 0, 0, 1, -9, -8)">
          <path id="路径_66-2" data-name="路径 66" class="cls-2" d="M18.4,7.7a9.248,9.248,0,0,0-6.5-5.8A2.553,2.553,0,0,0,9.5,0,2.584,2.584,0,0,0,7.1,1.8,9.691,9.691,0,0,0,.6,7.6,23.316,23.316,0,0,1,9.5,6.1,23.588,23.588,0,0,1,18.4,7.7Z" transform="translate(9 8)"/>
        </g>
        <g class="cls-4" transform="matrix(1, 0, 0, 1, -9, -8)">
          <path id="路径_67-2" data-name="路径 67" class="cls-2" d="M16.5,17.4a5.5,5.5,0,0,0,.7-.9h0a10.6,10.6,0,0,0,1.1-2.1h0a8.808,8.808,0,0,0,.6-3.3,12.31,12.31,0,0,0-.2-2c-1.7-1-5-1.8-9.3-1.8S1.9,8,.2,9A13.552,13.552,0,0,0,0,11a8.864,8.864,0,0,0,1.1,4.3h0l.3.6c0,.1.1.1.1.2.1.2.2.3.3.5,0,.1.1.1.1.2.1.1.2.3.4.4l.2.2c.1.1.2.3.4.4.1.1.1.2.2.2.1.1.3.2.4.4.1.1.2.1.2.2.2.2.5.3.7.5a.758.758,0,0,0,.4.2c.1.1.2.1.3.2s.3.1.4.2.2.1.4.1c.3.1.4.2.6.2.1,0,.2.1.4.1s.3.1.5.1c.1,0,.2.1.3.1.2,0,.4.1.6.1H9.5c.5,0,1-.1,1.5-.1a14.439,14.439,0,0,1-2.5-5.7,2.165,2.165,0,0,1-2-2.1,2.182,2.182,0,0,1,2.1-2.1,2.112,2.112,0,0,1,2.1,2.1,1.975,1.975,0,0,1-1.2,1.8c.5,1.9,1.4,4.6,2.7,5.7.4-.1.7-.3,1.1-.4.1,0,.1-.1.2-.1a9.292,9.292,0,0,1,1-.5.1.1,0,0,0,.1-.1,6.245,6.245,0,0,0,1.9-1.5Z" transform="translate(9 8)"/>
        </g>
        <path id="路径_68" data-name="路径 68" class="cls-3" d="M2.7,6.6C1.3,6,.5,5.2.5,4.3.5,2.2,5.4.5,11.5.5s11,1.7,11,3.8c0,.9-1,1.8-2.6,2.5" transform="translate(-2 7)"/>
      </g>
    </g>
  </g>
</svg>
