<svg xmlns="http://www.w3.org/2000/svg" xmlns:xlink="http://www.w3.org/1999/xlink" viewBox="0 0 40.581 39.782">
  <defs>
    <style>
      .cls-1 {
        fill: url(#linear-gradient);
      }

      .cls-2 {
        fill: #fff;
      }

      .cls-3 {
        filter: url(#排除_1);
      }
    </style>
    <linearGradient id="linear-gradient" x1="0.189" y1="0.947" x2="0.879" y2="0.109" gradientUnits="objectBoundingBox">
      <stop offset="0" stop-color="#ffa200"/>
      <stop offset="1" stop-color="#ffbd3a"/>
    </linearGradient>
    <filter id="排除_1" x="0" y="3.696" width="40.581" height="36.086" filterUnits="userSpaceOnUse">
      <feOffset dy="3" input="SourceAlpha"/>
      <feGaussianBlur stdDeviation="3" result="blur"/>
      <feFlood flood-color="#fc8500"/>
      <feComposite operator="in" in2="blur"/>
      <feComposite in="SourceGraphic"/>
    </filter>
  </defs>
  <g id="组_134" data-name="组 134" transform="translate(-121.192 -252)">
    <circle id="椭圆_6" data-name="椭圆 6" class="cls-1" cx="18.5" cy="18.5" r="18.5" transform="translate(123 252)"/>
    <g id="组_74" data-name="组 74" transform="translate(0.192 -0.311)">
      <g class="cls-3" transform="matrix(1, 0, 0, 1, 121, 252.31)">
        <path id="排除_1-2" data-name="排除 1" class="cls-2" d="M917.625,866.214h0V849.3l.005,0a18.807,18.807,0,0,1,5.78-1.17,18.308,18.308,0,0,1,4.979.7v16.914a27.258,27.258,0,0,0-4.979-.461,22.984,22.984,0,0,0-5.784.931Zm-1.052-.056h0a24.128,24.128,0,0,0-5.969-.982,21.865,21.865,0,0,0-4.794.515V848.883a15.331,15.331,0,0,1,4.794-.755,20.156,20.156,0,0,1,5.971,1.222v16.807Z" transform="translate(-896.81 -838.43)"/>
      </g>
    </g>
  </g>
</svg>
