<svg id="组_123" data-name="组 123" xmlns="http://www.w3.org/2000/svg" xmlns:xlink="http://www.w3.org/1999/xlink" viewBox="0 0 20 20">
  <defs>
    <style>
      .cls-1 {
        clip-path: url(#clip-path);
      }

      .cls-2 {
        fill: #8c8c8c;
      }

      .cls-3 {
        clip-path: url(#clip-path-2);
      }

      .cls-4 {
        fill: none;
        stroke: #8c8c8c;
        stroke-linecap: round;
        stroke-miterlimit: 10;
      }
    </style>
    <clipPath id="clip-path">
      <rect id="矩形_212" data-name="矩形 212" width="20" height="20"/>
    </clipPath>
    <clipPath id="clip-path-2">
      <rect id="矩形_213" data-name="矩形 213" width="20" height="20" transform="translate(-10 -6.8)"/>
    </clipPath>
  </defs>
  <g id="组_122" data-name="组 122">
    <g id="组_120" data-name="组 120" class="cls-1">
      <path id="路径_55" data-name="路径 55" class="cls-2" d="M10,2a1.445,1.445,0,0,1,.7.2l7,5.5V17c0,.4-.1,1-.7,1H3.6c-.6,0-1.3-.5-1.3-1V7.7l7-5.5A1.445,1.445,0,0,1,10,2m0-1a2.01,2.01,0,0,0-1.3.4L.3,8.1A.669.669,0,0,0,.1,9a.55.55,0,0,0,.5.3A.6.6,0,0,0,1,9.2L1.3,9v8a2.285,2.285,0,0,0,2.3,2H16.9a1.775,1.775,0,0,0,1.7-2V9l.2.2a.6.6,0,0,0,.4.1.55.55,0,0,0,.5-.3.633.633,0,0,0-.1-.9h0L11.1,1.4A1.246,1.246,0,0,0,10,1Z"/>
    </g>
    <g id="组_121" data-name="组 121" class="cls-3" transform="translate(10 6.8)">
      <line id="直线_44" data-name="直线 44" class="cls-4" y2="4.3"/>
    </g>
  </g>
</svg>
