<svg id="组_110" data-name="组 110" xmlns="http://www.w3.org/2000/svg" xmlns:xlink="http://www.w3.org/1999/xlink" viewBox="0 0 20 20">
  <defs>
    <style>
      .cls-1 {
        clip-path: url(#clip-path);
      }

      .cls-2 {
        fill: #ff4d00;
      }

      .cls-3 {
        clip-path: url(#clip-path-2);
      }

      .cls-4 {
        fill: none;
        stroke: #fff;
        stroke-linecap: round;
        stroke-miterlimit: 10;
      }
    </style>
    <clipPath id="clip-path">
      <rect id="矩形_210" data-name="矩形 210" width="20" height="20"/>
    </clipPath>
    <clipPath id="clip-path-2">
      <rect id="矩形_211" data-name="矩形 211" width="20" height="20" transform="translate(-10 -6.8)"/>
    </clipPath>
  </defs>
  <g id="组_108" data-name="组 108" class="cls-1">
    <path id="路径_51" data-name="路径 51" class="cls-2" d="M19.7,8.1,11.2,1.4a2.1,2.1,0,0,0-2.6,0L.3,8.1A.669.669,0,0,0,.1,9a.633.633,0,0,0,.9.1l.3-.2V17a2.285,2.285,0,0,0,2.3,2H16.9a1.775,1.775,0,0,0,1.7-2V9l.2.2a.6.6,0,0,0,.4.1.55.55,0,0,0,.5-.3.517.517,0,0,0,0-.9Z"/>
  </g>
  <g id="组_109" data-name="组 109" class="cls-3" transform="translate(10 6.8)">
    <line id="直线_43" data-name="直线 43" class="cls-4" y2="4.3"/>
  </g>
</svg>
