<svg id="组_113" data-name="组 113" xmlns="http://www.w3.org/2000/svg" viewBox="0 0 20 20.1">
  <defs>
    <style>
      .cls-1 {
        fill: #8c8c8c;
      }

      .cls-2 {
        fill: none;
      }
    </style>
  </defs>
  <g id="组_112" data-name="组 112">
    <path id="路径_52" data-name="路径 52" class="cls-1" d="M10,2.1l2.4,4.8.2.5.5.1,5.3.8L14.6,12l-.4.4.1.5.9,5.2-4.7-2.5-.5-.3-.5.2L4.8,18l.9-5.2.1-.5-.4-.4L1.6,8.2l5.3-.8.5-.1.2-.5L10,2.1M10,.8a.755.755,0,0,0-.7.4L6.7,6.5.9,7.3a.52.52,0,0,0-.4.2.666.666,0,0,0,0,1l4.2,4.1-1,5.8a.9.9,0,0,0,.1.5.822.822,0,0,0,.6.4.367.367,0,0,0,.3-.1l5.2-2.7,5.2,2.7a.367.367,0,0,0,.3.1h.1c.4-.1.7-.4.6-.8l-1-5.8,4.2-4.1a.758.758,0,0,0,.2-.4.641.641,0,0,0-.6-.8l-5.8-.8L10.5,1.3c-.1-.1-.2-.3-.3-.3,0-.2-.1-.2-.2-.2Z"/>
  </g>
  <rect id="SVGID_1_" class="cls-2" width="20" height="20.1"/>
</svg>
