<svg xmlns="http://www.w3.org/2000/svg" viewBox="0 0 19.425 18.481">
  <defs>
    <style>
      .cls-1 {
        fill: #ff4d00;
      }
    </style>
  </defs>
  <path id="路径_56" data-name="路径 56" class="cls-1" d="M19.1,7.3l-5.8-.8L10.7,1.2c-.1-.1-.2-.3-.3-.3a.777.777,0,0,0-1,.3L6.7,6.5.9,7.3a.52.52,0,0,0-.4.2.666.666,0,0,0,0,1l4.2,4.1-1,5.8a.9.9,0,0,0,.1.5.693.693,0,0,0,1,.3L10,16.5l5.2,2.7a.749.749,0,0,0,.5.1c.4-.1.7-.4.6-.8l-1-5.8,4.2-4.1a.758.758,0,0,0,.2-.4.8.8,0,0,0-.6-.9Z" transform="translate(-0.275 -0.819)"/>
</svg>
