<svg xmlns="http://www.w3.org/2000/svg" viewBox="0 0 134.01 112.876"><defs><style>.a{fill:#ebebeb;}.b{fill:#fff;}.c,.d{fill:#dbdbdb;}.c{font-size:24px;font-family:SegoeUI-Bold, Segoe UI;font-weight:700;letter-spacing:0.05em;}</style></defs><g transform="translate(-120.995 -204.681)"><path class="a" d="M70.158,108.284A47.682,47.682,0,0,1,87.8,70.892a48.463,48.463,0,0,0,23.528,90.75A48.741,48.741,0,0,0,142,150.718a50.075,50.075,0,0,1-23.528,5.882,48.6,48.6,0,0,1-48.317-48.316" transform="translate(77.505 139.67)"/><path class="b" d="M219.46,64.07a48.323,48.323,0,0,0-48.317-48.316,50.075,50.075,0,0,0-23.528,5.882,49.018,49.018,0,0,0-17.646,37.392,48.323,48.323,0,0,0,48.316,48.316,50.076,50.076,0,0,0,23.528-5.882A48.96,48.96,0,0,0,219.46,64.07" transform="translate(17.694 188.927)"/><text class="c" transform="translate(165 248)"><tspan x="0" y="0">4</tspan></text><text class="c" transform="translate(207 248)"><tspan x="0" y="0">4</tspan></text><path class="d" d="M443.864,441.538h-7.089a3.643,3.643,0,0,1-3.544-3.9l2.481-19.848a4.622,4.622,0,0,1,9.215,0l2.481,19.848a3.445,3.445,0,0,1-3.544,3.9" transform="translate(-246.217 -161.423)"/><path class="a" d="M211.634,428.353a2.941,2.941,0,1,0,2.941,2.941A2.872,2.872,0,0,0,211.634,428.353Zm-75.626.84a2.1,2.1,0,1,0,2.1,2.1A1.985,1.985,0,0,0,136.008,429.193Zm71.424,4.622a15.1,15.1,0,0,1-.84-4.622V374.154H189.787v55.039a17.869,17.869,0,0,1-.84,4.622l-.42.84a2.183,2.183,0,0,0-1.681-.84,2.1,2.1,0,1,0,0,4.2h.42l-1.26,2.941c0,.42,0,.84.84.84h22.688a.9.9,0,0,0,.84-.84l-2.941-7.142Zm-47.056,0a15.1,15.1,0,0,1-.84-4.622V374.154H142.731v55.039a17.868,17.868,0,0,1-.84,4.622l-2.941,7.142c0,.42,0,.84.84.84h22.688a.9.9,0,0,0,.84-.84l-2.941-7.142Z" transform="translate(20.176 -124.24)"/><rect class="d" width="8" height="32" rx="4" transform="matrix(0.966, -0.259, 0.259, 0.966, 120.995, 255.58)"/><rect class="d" width="8" height="32" rx="4" transform="matrix(0.966, 0.259, -0.259, 0.966, 247.277, 253.51)"/></g></svg>